<svg width="1200" height="900" viewBox="0 0 1200 900" fill="none" xmlns="http://www.w3.org/2000/svg">
  <rect width="1200" height="900" fill="#F5EFE6"/>
  <rect x="188" y="136" width="824" height="628" rx="44" fill="white" stroke="#E7DED1" stroke-width="8"/>
  <circle cx="378" cy="434" r="150" fill="#EFE3CF"/>
  <circle cx="378" cy="434" r="84" fill="#FFFDF8" stroke="#9F7334" stroke-width="12"/>
  <path d="M290 364C309.079 316.211 340.594 292 378 292C415.406 292 446.921 316.211 466 364" stroke="#9F7334" stroke-width="18" stroke-linecap="round"/>
  <path d="M272 366V496C272 539.63 307.37 575 351 575H356" stroke="#9F7334" stroke-width="18" stroke-linecap="round"/>
  <path d="M484 366V496C484 539.63 448.63 575 405 575H400" stroke="#9F7334" stroke-width="18" stroke-linecap="round"/>
  <rect x="552" y="248" width="360" height="30" rx="15" fill="#C2AF92"/>
  <rect x="552" y="320" width="290" height="22" rx="11" fill="#ECE3D7"/>
  <rect x="552" y="368" width="326" height="22" rx="11" fill="#ECE3D7"/>
  <rect x="552" y="416" width="280" height="22" rx="11" fill="#ECE3D7"/>
  <rect x="552" y="492" width="234" height="70" rx="26" fill="#F7F1E8"/>
</svg>
